<svg width="800" height="800" viewBox="0 0 800 800" fill="none" xmlns="http://www.w3.org/2000/svg">
<path d="M385.714 0H111.203C47.638 7.22701 0.337703 65.1295 0.00180011 132.698C-0.0227057 137.628 0.2028 142.609 0.690263 147.626C1.17773 152.643 1.9146 157.567 2.88614 162.383C16.2015 228.4 73.5971 274.399 137.162 267.172L260.159 253.188C267.973 252.299 274.999 257.985 275.759 265.812C276.563 274.088 270.057 281.254 261.742 281.25L14.2857 281.126V400H288.797C352.362 392.773 399.662 334.871 399.998 267.302C400.023 262.372 399.797 257.391 399.31 252.374C398.822 247.357 398.085 242.433 397.114 237.617C383.799 171.6 326.403 125.601 262.838 132.828L139.843 146.812C132.028 147.701 125.001 142.014 124.241 134.185C123.437 125.91 129.941 118.744 138.255 118.746L385.714 118.788V0Z" fill="white"/>
<path d="M518.857 602.902V800H400V400L800 400V518.857H602.902L795.459 711.414L711.414 795.459L518.857 602.902Z" fill="white"/>
</svg>
