<svg width="40" height="40" viewBox="0 0 40 40" fill="none" xmlns="http://www.w3.org/2000/svg">
<g clip-path="url(#clip0_96_3348)">
<path d="M16.4563 18.799C17.2864 18.3814 17.914 17.9164 18.344 17.4139C19.1091 16.5088 19.4866 15.3087 19.4866 13.8211C19.4866 12.3734 19.1091 11.1358 18.354 10.0983C17.0939 8.40812 14.9612 7.54305 11.946 7.49805H0V31.8825H11.1384C12.3935 31.8825 13.5561 31.775 14.6312 31.555C15.7063 31.3325 16.6364 30.925 17.4239 30.3299C18.124 29.8124 18.709 29.1698 19.1741 28.4123C19.9091 27.2672 20.2767 25.9696 20.2767 24.5244C20.2767 23.1243 19.9541 21.9317 19.3141 20.9516C18.6665 19.9716 17.7165 19.254 16.4563 18.799ZM4.9279 11.7334H10.3083C11.4909 11.7334 12.466 11.8609 13.2311 12.1134C14.1162 12.481 14.5587 13.2285 14.5587 14.3686C14.5587 15.3912 14.2212 16.1063 13.5536 16.5088C12.8811 16.9113 12.0085 17.1138 10.9384 17.1138H4.9279V11.7334ZM13.4361 27.2222C12.8411 27.5097 12.0035 27.6522 10.9309 27.6522H4.9279V21.1492H11.0134C12.0735 21.1567 12.8986 21.2967 13.4886 21.5592C14.5387 22.0342 15.0612 22.9043 15.0612 24.1769C15.0612 25.677 14.5212 26.6871 13.4361 27.2222Z" fill="white"/>
<path d="M36.1554 8.63477H25.5621V11.67H36.1554V8.63477Z" fill="white"/>
<path d="M39.8358 20.6137C39.6158 19.201 39.1307 17.9584 38.3757 16.8859C37.5481 15.6708 36.498 14.7807 35.2204 14.2181C33.9478 13.6531 32.5152 13.3706 30.9201 13.3731C28.2423 13.3731 26.0672 14.2106 24.3845 15.8733C22.7069 17.5409 21.8668 19.9386 21.8668 23.0639C21.8668 26.3966 22.7944 28.8043 24.6595 30.282C26.5172 31.7621 28.6624 32.4996 31.0976 32.4996C34.0453 32.4996 36.338 31.6221 37.9756 29.8719C39.0232 28.7668 39.6158 27.6792 39.7458 26.6116H34.8654C34.5829 27.1392 34.2553 27.5517 33.8803 27.8518C33.2003 28.4018 32.3152 28.6768 31.2301 28.6768C30.1975 28.6768 29.3224 28.4493 28.5924 27.9968C27.3873 27.2717 26.7572 26.0016 26.6772 24.1939H39.9958C40.0158 22.6363 39.9658 21.4387 39.8358 20.6137ZM26.7972 21.0812C26.9722 19.9086 27.3973 18.9785 28.0723 18.291C28.7474 17.6059 29.7025 17.2609 30.9251 17.2584C32.0527 17.2584 32.9952 17.5809 33.7628 18.2285C34.5204 18.881 34.9479 19.8286 35.0354 21.0812H26.7972Z" fill="white"/>
</g>
<defs>
<clipPath id="clip0_96_3348">
<rect width="40" height="40" fill="white"/>
</clipPath>
</defs>
</svg>
