<svg width="800" height="800" viewBox="0 0 800 800" fill="none" xmlns="http://www.w3.org/2000/svg">
<g clip-path="url(#clip0_90_3316)">
<path d="M106.628 0.5625C47.8772 0.5625 0.0430164 48.3875 0 107.185C0 165.982 47.8342 213.816 106.628 213.816C165.401 213.816 213.211 165.982 213.211 107.185C213.211 48.3936 165.398 0.5625 106.628 0.5625Z" fill="white"/>
<path d="M186.654 256.657H26.5902C18.9763 256.657 12.8004 262.83 12.8004 270.45V785.648C12.8004 793.265 18.9763 799.438 26.5902 799.438H186.651C194.268 799.438 200.444 793.262 200.444 785.648V270.45C200.447 262.827 194.271 256.657 186.654 256.657Z" fill="white"/>
<path d="M595.85 250.592C537.274 250.592 485.799 268.428 454.388 297.513V270.45C454.388 262.83 448.212 256.657 440.595 256.657H287.054C279.437 256.657 273.261 262.83 273.261 270.45V785.648C273.261 793.265 279.437 799.438 287.054 799.438H446.965C454.582 799.438 460.758 793.262 460.758 785.648V530.754C460.758 457.62 474.209 412.29 541.343 412.29C607.483 412.37 612.433 460.979 612.433 535.124V785.648C612.433 793.265 618.609 799.438 626.229 799.438H786.213C793.827 799.438 800.003 793.262 800.003 785.648V503.04C800 385.503 776.796 250.592 595.85 250.592Z" fill="white"/>
</g>
<defs>
<clipPath id="clip0_90_3316">
<rect width="800" height="800" fill="white"/>
</clipPath>
</defs>
</svg>
