<svg width="40" height="40" viewBox="0 0 40 40" fill="none" xmlns="http://www.w3.org/2000/svg">
<g clip-path="url(#clip0_96_3343)">
<path d="M5.33142 0.0273438C2.39386 0.0273438 0.00215082 2.41859 0 5.35845C0 8.29832 2.39171 10.69 5.33142 10.69C8.27005 10.69 10.6605 8.29832 10.6605 5.35845C10.6605 2.4189 8.2699 0.0273438 5.33142 0.0273438Z" fill="white"/>
<path d="M9.3327 12.832H1.32951C0.948811 12.832 0.640015 13.1407 0.640015 13.5217V39.2816C0.640015 39.6624 0.948811 39.9711 1.32951 39.9711H9.33255C9.7134 39.9711 10.0222 39.6623 10.0222 39.2816V13.5217C10.0223 13.1405 9.71355 12.832 9.3327 12.832Z" fill="white"/>
<path d="M29.7925 12.5293C26.8637 12.5293 24.29 13.4211 22.7194 14.8754V13.5222C22.7194 13.1412 22.4106 12.8326 22.0298 12.8326H14.3527C13.9719 12.8326 13.6631 13.1412 13.6631 13.5222V39.2821C13.6631 39.6629 13.9719 39.9716 14.3527 39.9716H22.3482C22.7291 39.9716 23.0379 39.6628 23.0379 39.2821V26.5374C23.0379 22.8807 23.7105 20.6142 27.0671 20.6142C30.3742 20.6182 30.6217 23.0486 30.6217 26.7559V39.2821C30.6217 39.6629 30.9305 39.9716 31.3115 39.9716H39.3107C39.6914 39.9716 40.0002 39.6628 40.0002 39.2821V25.1517C40 19.2749 38.8398 12.5293 29.7925 12.5293Z" fill="white"/>
</g>
<defs>
<clipPath id="clip0_96_3343">
<rect width="40" height="40" fill="white"/>
</clipPath>
</defs>
</svg>
