<svg width="512" height="512" viewBox="0 0 512 512" fill="none" xmlns="http://www.w3.org/2000/svg">
<path d="M399.153 63.4564V448.529C408.524 441.567 417.395 433.914 425.687 425.624C447.972 403.347 465.648 376.9 477.704 347.794C489.76 318.688 495.961 287.494 495.953 255.993C495.961 224.492 489.76 193.297 477.704 164.192C465.648 135.086 447.972 108.639 425.687 86.3614C417.395 78.0713 408.524 70.4189 399.153 63.4564Z" fill="#C0392B"/>
<path d="M112.799 63.4539C103.427 70.4171 94.5551 78.0703 86.2613 86.3614C63.9764 108.639 46.3011 135.086 34.2448 164.192C22.1886 193.297 15.9877 224.492 15.9961 255.993C15.9877 287.494 22.1886 318.688 34.2448 347.794C46.3011 376.9 63.9764 403.347 86.2613 425.624C94.5551 433.915 103.427 441.569 112.799 448.532V63.4539Z" fill="#C0392B"/>
<path d="M257.925 138.099L240.214 173.01C238.204 176.805 234.603 176.453 231.003 174.333L218.181 167.316L227.737 220.939C229.747 230.736 223.299 230.736 220.117 226.5L197.74 200.025L194.107 213.47C193.688 215.235 191.846 217.09 189.082 216.648L160.786 210.36L168.218 238.917C169.809 245.272 171.05 247.903 166.612 249.578L156.526 254.588L205.236 296.404C207.164 297.985 208.139 300.83 207.452 303.406L203.189 318.192C219.961 316.149 234.988 313.075 251.768 311.182C253.25 311.015 255.73 313.599 255.719 315.413L253.497 369.583H261.652L260.368 315.529C260.358 313.715 262.608 311.015 264.089 311.182C280.869 313.075 295.897 316.149 312.668 318.192L308.405 303.406C307.719 300.83 308.693 297.985 310.621 296.404L359.331 254.588L349.245 249.578C344.807 247.903 346.048 245.272 347.639 238.917L355.071 210.36L326.775 216.648C324.012 217.09 322.17 215.235 321.751 213.47L318.118 200.025L295.741 226.5C292.559 230.736 286.111 230.736 288.12 220.939L297.677 167.316L284.855 174.333C281.254 176.453 277.653 176.805 275.644 173.01" fill="#C0392B"/>
</svg>
